<svg id="visual" viewBox="0 0 1200 600" width="1200" height="600" xmlns="http://www.w3.org/2000/svg" xmlns:xlink="http://www.w3.org/1999/xlink" version="1.1"><path d="M0 115L67 115L67 85L133 85L133 91L200 91L200 109L267 109L267 109L333 109L333 79L400 79L400 91L467 91L467 85L533 85L533 85L600 85L600 91L667 91L667 91L733 91L733 79L800 79L800 103L867 103L867 115L933 115L933 103L1000 103L1000 115L1067 115L1067 85L1133 85L1133 109L1200 109L1200 115L1200 0L1200 0L1133 0L1133 0L1067 0L1067 0L1000 0L1000 0L933 0L933 0L867 0L867 0L800 0L800 0L733 0L733 0L667 0L667 0L600 0L600 0L533 0L533 0L467 0L467 0L400 0L400 0L333 0L333 0L267 0L267 0L200 0L200 0L133 0L133 0L67 0L67 0L0 0Z" fill="#fa7268"></path><path d="M0 271L67 271L67 283L133 283L133 253L200 253L200 295L267 295L267 283L333 283L333 271L400 271L400 277L467 277L467 277L533 277L533 283L600 283L600 235L667 235L667 313L733 313L733 283L800 283L800 277L867 277L867 265L933 265L933 247L1000 247L1000 271L1067 271L1067 277L1133 277L1133 259L1200 259L1200 271L1200 113L1200 107L1133 107L1133 83L1067 83L1067 113L1000 113L1000 101L933 101L933 113L867 113L867 101L800 101L800 77L733 77L733 89L667 89L667 89L600 89L600 83L533 83L533 83L467 83L467 89L400 89L400 77L333 77L333 107L267 107L267 107L200 107L200 89L133 89L133 83L67 83L67 113L0 113Z" fill="#e45765"></path><path d="M0 481L67 481L67 463L133 463L133 475L200 475L200 481L267 481L267 463L333 463L333 469L400 469L400 475L467 475L467 499L533 499L533 463L600 463L600 457L667 457L667 475L733 475L733 499L800 499L800 481L867 481L867 487L933 487L933 469L1000 469L1000 481L1067 481L1067 487L1133 487L1133 469L1200 469L1200 475L1200 269L1200 257L1133 257L1133 275L1067 275L1067 269L1000 269L1000 245L933 245L933 263L867 263L867 275L800 275L800 281L733 281L733 311L667 311L667 233L600 233L600 281L533 281L533 275L467 275L467 275L400 275L400 269L333 269L333 281L267 281L267 293L200 293L200 251L133 251L133 281L67 281L67 269L0 269Z" fill="#cb3d62"></path><path d="M0 601L67 601L67 601L133 601L133 601L200 601L200 601L267 601L267 601L333 601L333 601L400 601L400 601L467 601L467 601L533 601L533 601L600 601L600 601L667 601L667 601L733 601L733 601L800 601L800 601L867 601L867 601L933 601L933 601L1000 601L1000 601L1067 601L1067 601L1133 601L1133 601L1200 601L1200 601L1200 473L1200 467L1133 467L1133 485L1067 485L1067 479L1000 479L1000 467L933 467L933 485L867 485L867 479L800 479L800 497L733 497L733 473L667 473L667 455L600 455L600 461L533 461L533 497L467 497L467 473L400 473L400 467L333 467L333 461L267 461L267 479L200 479L200 473L133 473L133 461L67 461L67 479L0 479Z" fill="#b0235f"></path></svg>