<svg id="visual" viewBox="0 0 1200 600" width="1200" height="600" xmlns="http://www.w3.org/2000/svg" xmlns:xlink="http://www.w3.org/1999/xlink" version="1.1"><rect x="0" y="0" width="1200" height="600" fill="#00130f"></rect><path d="M0 335L33.3 336.2C66.7 337.3 133.3 339.7 200 352.3C266.7 365 333.3 388 400 411.5C466.7 435 533.3 459 600 463.5C666.7 468 733.3 453 800 457C866.7 461 933.3 484 1000 492.2C1066.7 500.3 1133.3 493.7 1166.7 490.3L1200 487L1200 0L1166.7 0C1133.3 0 1066.7 0 1000 0C933.3 0 866.7 0 800 0C733.3 0 666.7 0 600 0C533.3 0 466.7 0 400 0C333.3 0 266.7 0 200 0C133.3 0 66.7 0 33.3 0L0 0Z" fill="#01271f"></path><path d="M0 410L33.3 398.3C66.7 386.7 133.3 363.3 200 356.5C266.7 349.7 333.3 359.3 400 360.3C466.7 361.3 533.3 353.7 600 342.5C666.7 331.3 733.3 316.7 800 327.7C866.7 338.7 933.3 375.3 1000 376.8C1066.7 378.3 1133.3 344.7 1166.7 327.8L1200 311L1200 0L1166.7 0C1133.3 0 1066.7 0 1000 0C933.3 0 866.7 0 800 0C733.3 0 666.7 0 600 0C533.3 0 466.7 0 400 0C333.3 0 266.7 0 200 0C133.3 0 66.7 0 33.3 0L0 0Z" fill="#013329"></path><path d="M0 297L33.3 290C66.7 283 133.3 269 200 280.8C266.7 292.7 333.3 330.3 400 345.3C466.7 360.3 533.3 352.7 600 341.8C666.7 331 733.3 317 800 306.7C866.7 296.3 933.3 289.7 1000 291.8C1066.7 294 1133.3 305 1166.7 310.5L1200 316L1200 0L1166.7 0C1133.3 0 1066.7 0 1000 0C933.3 0 866.7 0 800 0C733.3 0 666.7 0 600 0C533.3 0 466.7 0 400 0C333.3 0 266.7 0 200 0C133.3 0 66.7 0 33.3 0L0 0Z" fill="#004033"></path><path d="M0 223L33.3 241.3C66.7 259.7 133.3 296.3 200 296.2C266.7 296 333.3 259 400 257.5C466.7 256 533.3 290 600 292.3C666.7 294.7 733.3 265.3 800 265.2C866.7 265 933.3 294 1000 315.3C1066.7 336.7 1133.3 350.3 1166.7 357.2L1200 364L1200 0L1166.7 0C1133.3 0 1066.7 0 1000 0C933.3 0 866.7 0 800 0C733.3 0 666.7 0 600 0C533.3 0 466.7 0 400 0C333.3 0 266.7 0 200 0C133.3 0 66.7 0 33.3 0L0 0Z" fill="#004d3d"></path><path d="M0 226L33.3 222.3C66.7 218.7 133.3 211.3 200 224.7C266.7 238 333.3 272 400 281C466.7 290 533.3 274 600 252C666.7 230 733.3 202 800 199.8C866.7 197.7 933.3 221.3 1000 242.8C1066.7 264.3 1133.3 283.7 1166.7 293.3L1200 303L1200 0L1166.7 0C1133.3 0 1066.7 0 1000 0C933.3 0 866.7 0 800 0C733.3 0 666.7 0 600 0C533.3 0 466.7 0 400 0C333.3 0 266.7 0 200 0C133.3 0 66.7 0 33.3 0L0 0Z" fill="#005b48"></path><path d="M0 131L33.3 131.2C66.7 131.3 133.3 131.7 200 143.8C266.7 156 333.3 180 400 196.8C466.7 213.7 533.3 223.3 600 222.8C666.7 222.3 733.3 211.7 800 202C866.7 192.3 933.3 183.7 1000 175C1066.7 166.3 1133.3 157.7 1166.7 153.3L1200 149L1200 0L1166.7 0C1133.3 0 1066.7 0 1000 0C933.3 0 866.7 0 800 0C733.3 0 666.7 0 600 0C533.3 0 466.7 0 400 0C333.3 0 266.7 0 200 0C133.3 0 66.7 0 33.3 0L0 0Z" fill="#006953"></path><path d="M0 181L33.3 183.5C66.7 186 133.3 191 200 177.5C266.7 164 333.3 132 400 127.7C466.7 123.3 533.3 146.7 600 152.2C666.7 157.7 733.3 145.3 800 147.2C866.7 149 933.3 165 1000 168.3C1066.7 171.7 1133.3 162.3 1166.7 157.7L1200 153L1200 0L1166.7 0C1133.3 0 1066.7 0 1000 0C933.3 0 866.7 0 800 0C733.3 0 666.7 0 600 0C533.3 0 466.7 0 400 0C333.3 0 266.7 0 200 0C133.3 0 66.7 0 33.3 0L0 0Z" fill="#00775d"></path><path d="M0 116L33.3 112.5C66.7 109 133.3 102 200 105.8C266.7 109.7 333.3 124.3 400 120C466.7 115.7 533.3 92.3 600 81.8C666.7 71.3 733.3 73.7 800 82.5C866.7 91.3 933.3 106.7 1000 116.3C1066.7 126 1133.3 130 1166.7 132L1200 134L1200 0L1166.7 0C1133.3 0 1066.7 0 1000 0C933.3 0 866.7 0 800 0C733.3 0 666.7 0 600 0C533.3 0 466.7 0 400 0C333.3 0 266.7 0 200 0C133.3 0 66.7 0 33.3 0L0 0Z" fill="#008568"></path><path d="M0 87L33.3 85.5C66.7 84 133.3 81 200 73.2C266.7 65.3 333.3 52.7 400 45.8C466.7 39 533.3 38 600 45.8C666.7 53.7 733.3 70.3 800 78C866.7 85.7 933.3 84.3 1000 84.2C1066.7 84 1133.3 85 1166.7 85.5L1200 86L1200 0L1166.7 0C1133.3 0 1066.7 0 1000 0C933.3 0 866.7 0 800 0C733.3 0 666.7 0 600 0C533.3 0 466.7 0 400 0C333.3 0 266.7 0 200 0C133.3 0 66.7 0 33.3 0L0 0Z" fill="#009473"></path></svg>