<svg xmlns="http://www.w3.org/2000/svg" xmlns:xlink="http://www.w3.org/1999/xlink" width="600" zoomAndPan="magnify" viewBox="0 0 450 149.999998" height="200" preserveAspectRatio="xMidYMid meet" version="1.0"><path stroke-linecap="butt" transform="matrix(1.069325, 0, 0, 1.069325, -55.734003, -12.598577)" fill="none" stroke-linejoin="miter" d="M 119.679363 105.273126 C 119.679363 116.261361 113.045508 121.755479 99.774146 121.755479 C 86.506436 121.755479 79.872581 116.261361 79.872581 105.273126 L 79.872581 95.263895 L 88.099145 95.263895 L 88.099145 105.733404 C 88.099145 108.571788 89.074497 110.778203 91.032507 112.348994 C 93.005129 113.919786 95.920227 114.708835 99.774146 114.708835 C 103.628065 114.708835 106.535856 113.919786 108.490213 112.348994 C 110.44457 110.778203 111.423575 108.637542 111.423575 105.93432 C 111.423575 103.212832 111.127681 101.0466 110.532242 99.435626 C 109.955067 97.824651 108.767841 96.118698 106.96691 94.314114 L 86.228807 74.065514 C 83.792254 71.632613 82.122831 69.254508 81.224192 66.934851 C 80.3219 64.615193 79.872581 61.689137 79.872581 58.160335 C 79.872581 52.889051 81.50182 48.823258 84.7603 45.966609 C 88.022432 43.088041 92.950334 41.652411 99.544006 41.652411 C 112.179747 41.652411 118.499443 47.153835 118.499443 58.160335 L 118.499443 68.169566 L 110.243655 68.169566 L 110.243655 57.670833 C 110.243655 54.854367 109.323098 52.658912 107.481984 51.084467 C 105.64087 49.513675 102.871893 48.728279 99.1714 48.728279 C 95.489172 48.728279 92.720195 49.513675 90.857163 51.084467 C 89.019702 52.658912 88.099145 54.814184 88.099145 57.55759 C 88.099145 60.300996 88.376774 62.456268 88.93203 64.027059 C 89.487287 65.601504 90.703737 67.249009 92.585034 68.97688 L 113.666519 89.254704 C 115.949647 91.764318 117.520438 94.182606 118.382547 96.502264 C 119.248309 98.821921 119.679363 101.744324 119.679363 105.273126 Z M 153.246816 43.435077 L 179.161225 43.435077 L 179.161225 50.481721 L 161.502604 50.481721 L 161.502604 106.913325 C 161.502604 109.119739 162.06882 110.968159 163.201251 112.46589 C 164.348294 113.959969 165.959269 114.708835 168.030522 114.708835 C 170.12004 114.708835 171.71275 113.978234 172.804998 112.520685 C 173.897246 111.063137 174.445197 109.196452 174.445197 106.913325 L 174.445197 92.907708 L 182.700986 92.907708 L 182.700986 106.453046 C 182.700986 111.399213 181.385904 115.187378 178.759395 117.813888 C 176.132885 120.440398 172.574859 121.755479 168.08897 121.755479 C 163.621347 121.755479 160.026791 120.440398 157.30165 117.813888 C 154.598427 115.187378 153.246816 111.399213 153.246816 106.453046 Z M 233.477739 119.998384 L 225.22195 119.998384 L 225.22195 98.314154 C 214.540567 97.145192 209.199875 91.727788 209.199875 82.061939 L 209.199875 43.435077 L 217.455664 43.435077 L 217.455664 82.061939 C 217.455664 88.352412 221.37899 91.497648 229.218337 91.497648 C 237.083254 91.497648 241.013886 88.352412 241.013886 82.061939 L 241.013886 43.435077 L 249.266022 43.435077 L 249.266022 82.061939 C 249.266022 91.727788 244.002043 97.145192 233.477739 98.314154 Z M 282.844433 119.998384 L 282.844433 43.435077 L 291.070997 43.435077 L 291.070997 112.926169 L 312.641985 112.926169 L 312.641985 119.998384 Z M 369.771312 105.273126 L 369.771312 98.803656 L 378.027101 98.803656 L 378.027101 105.273126 C 378.027101 110.526145 376.416126 114.591939 373.194177 117.470506 C 369.972227 120.327155 365.139303 121.755479 358.695405 121.755479 C 352.255159 121.755479 347.385705 120.327155 344.087042 117.470506 C 340.78838 114.591939 339.137222 110.526145 339.137222 105.273126 L 339.137222 58.160335 C 339.137222 52.889051 340.748197 48.823258 343.970146 45.966609 C 347.192095 43.088041 352.02502 41.652411 358.468918 41.652411 C 364.909164 41.652411 369.778618 43.088041 373.077281 45.966609 C 376.375943 48.823258 378.027101 52.889051 378.027101 58.160335 L 378.027101 84.074745 L 347.393011 84.074745 L 347.393011 105.273126 C 347.393011 111.563598 351.122728 114.708835 358.582161 114.708835 C 366.041595 114.708835 369.771312 111.563598 369.771312 105.273126 Z M 347.393011 58.160335 L 347.393011 76.998876 L 369.771312 76.998876 L 369.771312 58.160335 C 369.771312 51.873516 366.041595 48.728279 358.582161 48.728279 C 351.122728 48.728279 347.393011 51.873516 347.393011 58.160335 Z M 450.718224 119.998384 L 442.1154 119.998384 L 428.800201 90.200832 L 415.481349 119.998384 L 406.882178 119.998384 L 424.544452 80.538637 L 408.062098 43.435077 L 416.661269 43.435077 L 429.26048 71.939466 L 442.1154 43.435077 L 450.718224 43.435077 L 433.633125 81.601661 Z M 450.718224 119.998384 " stroke="#000000" stroke-width="8.099987" stroke-opacity="1" stroke-miterlimit="4"/><path stroke-linecap="butt" transform="matrix(1.069325, 0, 0, 1.069325, -56.583468, -12.598577)" fill="none" stroke-linejoin="miter" d="M 119.677402 105.273126 C 119.677402 116.261361 113.043547 121.755479 99.775838 121.755479 C 86.504475 121.755479 79.87062 116.261361 79.87062 105.273126 L 79.87062 95.263895 L 88.097184 95.263895 L 88.097184 105.733404 C 88.097184 108.571788 89.076189 110.778203 91.030546 112.348994 C 93.006821 113.919786 95.921919 114.708835 99.775838 114.708835 C 103.629757 114.708835 106.533895 113.919786 108.488252 112.348994 C 110.446262 110.778203 111.425267 108.637542 111.425267 105.93432 C 111.425267 103.212832 111.12572 101.0466 110.530281 99.435626 C 109.956759 97.824651 108.769533 96.118698 106.964949 94.314114 L 86.226846 74.065514 C 83.793946 71.632613 82.124523 69.254508 81.222231 66.934851 C 80.323592 64.615193 79.87062 61.689137 79.87062 58.160335 C 79.87062 52.889051 81.499859 48.823258 84.761992 45.966609 C 88.020471 43.088041 92.948373 41.652411 99.545698 41.652411 C 112.181439 41.652411 118.497482 47.153835 118.497482 58.160335 L 118.497482 68.169566 L 110.245347 68.169566 L 110.245347 57.670833 C 110.245347 54.854367 109.32479 52.658912 107.483676 51.084467 C 105.642562 49.513675 102.869932 48.728279 99.169439 48.728279 C 95.490864 48.728279 92.718234 49.513675 90.858855 51.084467 C 89.017741 52.658912 88.097184 54.814184 88.097184 57.55759 C 88.097184 60.300996 88.374813 62.456268 88.930069 64.027059 C 89.488979 65.601504 90.705429 67.249009 92.583073 68.97688 L 113.668211 89.254704 C 115.947686 91.764318 117.52213 94.182606 118.384239 96.502264 C 119.246348 98.821921 119.677402 101.744324 119.677402 105.273126 Z M 153.248508 43.435077 L 179.162917 43.435077 L 179.162917 50.481721 L 161.504296 50.481721 L 161.504296 106.913325 C 161.504296 109.119739 162.066859 110.968159 163.19929 112.46589 C 164.349986 113.959969 165.960961 114.708835 168.032214 114.708835 C 170.121732 114.708835 171.714442 113.978234 172.80669 112.520685 C 173.898938 111.063137 174.446889 109.196452 174.446889 106.913325 L 174.446889 92.907708 L 182.699025 92.907708 L 182.699025 106.453046 C 182.699025 111.399213 181.387596 115.187378 178.761087 117.813888 C 176.134577 120.440398 172.576551 121.755479 168.090662 121.755479 C 163.623039 121.755479 160.02483 120.440398 157.303342 117.813888 C 154.600119 115.187378 153.248508 111.399213 153.248508 106.453046 Z M 233.475778 119.998384 L 225.223642 119.998384 L 225.223642 98.314154 C 214.542259 97.145192 209.201567 91.727788 209.201567 82.061939 L 209.201567 43.435077 L 217.457356 43.435077 L 217.457356 82.061939 C 217.457356 88.352412 221.377029 91.497648 229.220029 91.497648 C 237.081293 91.497648 241.011925 88.352412 241.011925 82.061939 L 241.011925 43.435077 L 249.267714 43.435077 L 249.267714 82.061939 C 249.267714 91.727788 244.003735 97.145192 233.475778 98.314154 Z M 282.846125 119.998384 L 282.846125 43.435077 L 291.072689 43.435077 L 291.072689 112.926169 L 312.643677 112.926169 L 312.643677 119.998384 Z M 369.769351 105.273126 L 369.769351 98.803656 L 378.02514 98.803656 L 378.02514 105.273126 C 378.02514 110.526145 376.414165 114.591939 373.192216 117.470506 C 369.970266 120.327155 365.140995 121.755479 358.697097 121.755479 C 352.253198 121.755479 347.383744 120.327155 344.085081 117.470506 C 340.786419 114.591939 339.138914 110.526145 339.138914 105.273126 L 339.138914 58.160335 C 339.138914 52.889051 340.749889 48.823258 343.971838 45.966609 C 347.193787 43.088041 352.023059 41.652411 358.466957 41.652411 C 364.910856 41.652411 369.78031 43.088041 373.078973 45.966609 C 376.377635 48.823258 378.02514 52.889051 378.02514 58.160335 L 378.02514 84.074745 L 347.394703 84.074745 L 347.394703 105.273126 C 347.394703 111.563598 351.12442 114.708835 358.583853 114.708835 C 366.039634 114.708835 369.769351 111.563598 369.769351 105.273126 Z M 347.394703 58.160335 L 347.394703 76.998876 L 369.769351 76.998876 L 369.769351 58.160335 C 369.769351 51.873516 366.039634 48.728279 358.583853 48.728279 C 351.12442 48.728279 347.394703 51.873516 347.394703 58.160335 Z M 450.716263 119.998384 L 442.117092 119.998384 L 428.79824 90.200832 L 415.483041 119.998384 L 406.88387 119.998384 L 424.542491 80.538637 L 408.06379 43.435077 L 416.662961 43.435077 L 429.258519 71.939466 L 442.117092 43.435077 L 450.716263 43.435077 L 433.631164 81.601661 Z M 450.716263 119.998384 " stroke="#000000" stroke-width="8.099987" stroke-opacity="1" stroke-miterlimit="4"/></svg>